<svg xmlns="http://www.w3.org/2000/svg" viewBox="0 0 377 835"><path fill="#f8f8f9" stroke="#f8f8f9" d="M180.352 34.993c-3.028 1.222-3.76 2.741-4.341 9.007-.371 3.995-.921 5.5-2.011 5.5-1.031 0-1.656 1.38-2 4.416-.439 3.881-.664 4.218-1.851 2.777-2.61-3.17-9.105 1.478-9.134 6.537-.037 6.565 4.178 12.773 8.669 12.768 1.587-.001 1.774.741 1.483 5.884-.283 5.001-.007 6.189 1.834 7.904 1.924 1.793 2.092 2.676 1.501 7.867-1.016 8.924-1.236 9.349-4.819 9.333-5.153-.022-7.106-.915-8.923-4.082-2.903-5.058-11.672-7.369-18.445-4.862-10.197 3.776-11.425 18.471-2.098 25.112 4.31 3.07 13.103 3.237 17.251.329 6.514-4.565 8.221-5.34 11.913-5.41l3.881-.073-.62 3.75c-.341 2.063-.625 7.012-.631 11L172 140h-5.567c-5.026 0-5.877-.328-8.75-3.371-3.77-3.993-10.073-5.538-14.728-3.611-1.611.668-2.703 1.581-2.426 2.029.277.448-.023 1.14-.667 1.538-.731.452-.903.291-.457-.43 1.269-2.055-.992-1.224-3.27 1.202-4.652 4.951-3.664 13.819 2.236 20.075 6.154 6.526 16.564 5.799 21.157-1.477 2.284-3.618 2.868-3.955 6.848-3.955h4.351l.718 9.75c.894 12.15.874 13.168-.973 49.75-.833 16.5-2.181 43.913-2.995 60.919-.815 17.005-1.593 30.996-1.729 31.091-.136.095-3.623.875-7.748 1.733-11.537 2.398-15.227 3.506-16.034 4.813-.409.66-1.243.891-1.854.513-.612-.378-1.112-.162-1.112.479 0 .643-.696.899-1.552.57-.943-.362-1.296-.181-.9.46.359.581.045.952-.698.826-3.634-.618-21.887 8.147-26.671 12.809-.727.708-1.766 1.287-2.309 1.287-.544 0-.667.52-.275 1.155.442.714.275.883-.437.443-1.456-.9-16.801 14.672-22.081 22.406-17.731 25.976-20.437 52.904-9.12 90.754 4.036 13.501 4.033 13.722-.261 21.046-4.077 6.953-4.258 7.831-2.458 11.899 1.629 3.681 3.358 4.935 8.663 6.284 7.574 1.924 17.104 8.577 15.652 10.927-.4.647-.158 1.017.561.861 3.877-.844 8.324 17.588 7.534 31.225-1.344 23.175-10.662 43.825-24.845 55.055-2.583 2.045-4.481 3.934-4.217 4.197 2.3 2.3-12.301 3.899-20.687 2.265-3.318-.646-3.85-.4-6.75 3.119-3.905 4.737-3.911 4.534.428 14.403 5.279 12.006 5.283 12.93.113 23.961-14.793 31.561-17.227 60.143-7.596 89.199 1.586 4.785 3.805 10.34 4.931 12.346 1.127 2.006 1.797 4.44 1.489 5.41-.307.969.126 2.331.963 3.026.838.695 1.527.871 1.532.391.006-.479 1.06.928 2.343 3.128 1.465 2.512 2.269 5.378 2.162 7.703-.104 2.248.221 3.46.827 3.086.589-.364.742.053.373 1.015-.345.898-.167 1.916.395 2.263.635.393.371 1.35-.699 2.532-1.8 1.99-.624 2.715 1.294.797.804-.804 1.603-.784 2.95.076 1.611 1.029 1.623 1.11.096.635-2.296-.714-2.208-.059.498 3.739 1.796 2.521 2.179 4.208 1.907 8.404-.272 4.209-.034 5.25 1.201 5.25 1.834 0 6.644 4.246 6.644 5.865 0 .624.367 1.135.815 1.135 1.241 0 4.206 6.783 3.625 8.295-.281.732.405 2.16 1.525 3.173 1.55 1.403 2.044 1.507 2.071.437.021-.804 1.064-.147 2.44 1.537 1.323 1.618 2.15 3.353 1.839 3.857-.325.527.4.609 1.711.193 1.837-.583 2.157-.411 1.657.893-.427 1.112-.069 1.615 1.148 1.615.973 0 2.196.409 2.719.908 3.054 2.918 25.473 13.31 33.95 15.736 30.095 8.614 52.46 11.947 73 10.881 24.096-1.251 42.655-4.031 58-8.687 8.851-2.686 29.583-10.7 31.291-12.096.71-.58 3.563-2.108 6.34-3.394 13.775-6.382 47.493-34.911 45.354-38.373-.349-.563-.263-.901.191-.75.959.32 5.324-3.828 5.324-5.059 0-.459 1.688-3.305 3.75-6.325 7.435-10.884 12.449-21.04 11.635-23.564-.43-1.333-.333-1.441.388-.432.849 1.187 2.246-1.354 2.113-3.845-.015-.275.444-1.738 1.019-3.25.661-1.739.687-2.75.07-2.75-.536 0-.975-.675-.975-1.5s.659-1.5 1.465-1.5c2.578 0 3.626-3.801 3.869-14.025l.237-9.975H350l-.127 2.75c-.07 1.513-.5-.136-.957-3.664-.457-3.528-.598-6.791-.314-7.25.284-.46.25-.836-.075-.836s-1.035 1.013-1.576 2.25c-.724 1.653-.881.259-.593-5.25.29-5.548.141-6.849-.573-5-.531 1.375-.703 5.2-.382 8.5 1.666 17.119 1.672 17.31.432 13.5l-1.14-3.5-.992 3.25c-1.291 4.227-2.871 4.227-1.928 0 3.199-14.338-.529-42.338-8.021-60.245-1.612-3.853-3.028-7.455-3.147-8.005-.119-.55-.979-2.44-1.912-4.2-1.809-3.416-2.312-5.802-.695-3.3.704 1.09.974 1.142.985.191.008-.72.423-1.057.921-.749.498.308.788 1.347.644 2.309-.145.962-.065 1.163.177.446.34-1.008.761-1.037 1.857-.128 1.122.932 1.416.84 1.416-.447 0-.892-.517-1.622-1.148-1.622-.631 0 .381-1.028 2.25-2.285 3.172-2.132 3.418-2.694 3.694-8.433.377-7.824-.835-12.489-3.603-13.871-1.2-.599-1.927-1.343-1.617-1.653 1.058-1.058-3.368-8.252-6.49-10.548-2.827-2.079-3.795-2.229-10.482-1.623-6.583.596-7.959.397-12.911-1.87-5.945-2.722-15.032-10.36-14.106-11.858.309-.5.06-.785-.552-.634-3.17.782-11.405-17.646-14.41-32.247-1.645-7.994-2.151-33.14-.593-29.478.81 1.903.887 1.882 1.578-.446.633-2.135.807-2.215 1.364-.628.58 1.655.78 1.677 2.211.246.865-.865 2.72-1.861 4.122-2.213 1.401-.352 2.792-1.274 3.089-2.049.298-.776 1.236-1.41 2.086-1.41.85 0 2.327-.401 3.282-.89.955-.49 3.643-1.727 5.975-2.75 2.331-1.023 4.243-2.444 4.25-3.158.006-.714 1.214-2.333 2.685-3.598 2.316-1.992 2.658-3.013 2.553-7.63-.089-3.906.332-5.703 1.576-6.726.933-.768 1.135-1.111.447-.763-2.524 1.278-3.27-.65-1.021-2.637l2.271-2.008-2.473 1.58c-3.096 1.979-4.127 2.005-3.391.086.316-.822.947-1.263 1.405-.981 1.46.903-.673-4.903-3.908-10.635-3.908-6.925-3.902-7.236.414-19.945 13.065-38.474 9.731-65.86-11.629-95.536-15.488-21.517-35.322-33.975-67.418-42.349l-10-2.609-.665-7.475c-.822-9.231-3.432-61.185-4.909-97.71-.989-24.482-.94-27.395.487-28.822 1.176-1.176 1.587-3.591 1.587-9.329v-7.741l4.507-.234c4.03-.208 4.612.042 5.494 2.362 3.261 8.579 20.313 6.17 25.896-3.658 3.117-5.485-2.298-15.434-10.524-19.337-4.65-2.207-11.654.063-14.243 4.615-1.423 2.501-2.215 2.866-6.238 2.872l-4.607.006-.795-6.25c-.437-3.437-.839-8.05-.892-10.25l-.098-4 4.857-.309c4.445-.283 5.168.002 8.5 3.343 3.597 3.607 3.731 3.648 10.543 3.268 10.768-.6 16.671-8.586 13.045-17.648-4.469-11.17-16.27-13.95-23.996-5.654-3.897 4.185-4.543 4.5-9.237 4.5h-5.046l-1.083-5.049c-1.539-7.178-1.358-9.298.917-10.719 1.684-1.052 2-2.332 2-8.102 0-6.592.087-6.836 2.278-6.417 3.174.607 5.857-2.7 6.427-7.922.695-6.36-.887-9.547-5.134-10.344-3.005-.563-3.612-1.147-4.145-3.988-.343-1.831-1.479-4.102-2.525-5.049-1.113-1.007-1.901-3.046-1.901-4.919 0-6.207-3.594-8.501-13.202-8.428-4.564.035-9.264.454-10.446.93m13.727 115.59c.048 1.165.285 1.402.604.605.289-.722.253-1.585-.079-1.917-.332-.332-.568.258-.525 1.312M178.355 191.5c-.003 4.95.166 7.101.376 4.78.209-2.321.212-6.371.005-9-.206-2.629-.378-.73-.381 4.22m-3.045 66c.005 3.3.192 4.529.415 2.732.222-1.797.218-4.497-.01-6-.229-1.503-.411-.032-.405 3.268m-7.058 190c.011 2.2.216 2.982.455 1.738.239-1.244.23-3.044-.02-4s-.446.062-.435 2.262m136.481 30.624c.679.684 1.486.991 1.793.683.308-.308-.247-.867-1.233-1.243-1.425-.542-1.54-.428-.56.56m-4.226.865c-.35.566.051.734.941.393 1.732-.665 2.049-1.382.611-1.382-.518 0-1.216.445-1.552.989M275 500.941c0 .518.445 1.216.989 1.552.566.35.734-.051.393-.941-.665-1.732-1.382-2.049-1.382-.611m-.921 3.642c.048 1.165.285 1.402.604.605.289-.722.253-1.585-.079-1.917-.332-.332-.568.258-.525 1.312M165.272 509c0 2.475.195 3.487.434 2.25.238-1.238.238-3.262 0-4.5-.239-1.238-.434-.225-.434 2.25m14.077 18c0 4.675.173 6.587.383 4.25.211-2.337.211-6.163 0-8.5-.21-2.337-.383-.425-.383 4.25m13.861 24.25L193 567h-6.45c-5.088 0-6.666-.37-7.47-1.75-.959-1.647-1.021-1.648-1.05-.019-.017.974-1.014 1.938-2.28 2.205-1.238.261-4.37.886-6.962 1.39l-4.711.915-.335-8.12-.335-8.121-.203 8.271c-.191 7.762-.358 8.342-2.704 9.411-1.375.626-2.5 1.689-2.5 2.362 0 1.249 4.522 2.6 5.484 1.639.556-.556 1.675-.689 10.277-1.218 4.75-.292 5.21-.524 4.744-2.394-.475-1.906-.425-1.896.622.133 1.034 2.004 1.829 2.189 8.755 2.042 4.19-.089 11.218-.037 15.618.117 11.872.413 15.5.237 15.5-.754 0-1.512-8.229-4.436-13.549-4.815-2.777-.198-6.377-.714-8-1.147l-2.951-.787-.54-15.43-.539-15.43-.211 15.75m15.948 5.75c0 1.375.227 1.938.504 1.25.278-.687.278-1.812 0-2.5-.277-.687-.504-.125-.504 1.25M71 584c-.825.533-1.05.969-.5.969s1.675-.436 2.5-.969c.825-.533 1.05-.969.5-.969s-1.675.436-2.5.969m-11.187 1.683c.721.289 1.584.253 1.916-.079.332-.332-.258-.568-1.312-.525-1.165.048-1.402.285-.604.604m270.8 1.5c.289.467.944.591 1.456.274 1.308-.808 1.161-1.124-.525-1.124-.801 0-1.22.383-.931.85M331 598c-.589 1.1-.845 2-.57 2s.981-.9 1.57-2c.589-1.1.845-2 .57-2s-.981.9-1.57 2m.754 31.833c-.264 1.009.037 1.834.669 1.834s1.148-.825 1.148-1.834c0-1.008-.301-1.833-.669-1.833-.368 0-.884.825-1.148 1.833m6.277 11.667c0 .55.436 1.675.969 2.5.533.825.969 1.05.969.5s-.436-1.675-.969-2.5c-.533-.825-.969-1.05-.969-.5m2.048 6.083c.048 1.165.285 1.402.604.605.289-.722.253-1.585-.079-1.917-.332-.332-.568.258-.525 1.312m.367 5.504c-.369.598-.267 1.492.227 1.986.531.531.898.087.898-1.087 0-2.273-.185-2.42-1.125-.899M356 686c0 .55.45 1 1 1s1-.45 1-1-.45-1-1-1-1 .45-1 1m12.157 4c-.644 9.202-.588 14.736.135 13.442.436-.778.639-4.909.452-9.179-.188-4.27-.452-6.188-.587-4.263m-20.999 3c0 1.375.227 1.938.504 1.25.278-.687.278-1.812 0-2.5-.277-.687-.504-.125-.504 1.25m-3.079.583c.048 1.165.285 1.402.604.605.289-.722.253-1.585-.079-1.917-.332-.332-.568.258-.525 1.312M355 703.378c0 .207.675.937 1.5 1.622 1.229 1.02 1.5.951 1.5-.378 0-.892-.675-1.622-1.5-1.622s-1.5.17-1.5.378m-14.615 2.061c-.304.792-.126 2.201.394 3.131.746 1.332.923 1.026.834-1.437-.125-3.461-.403-3.844-1.228-1.694M339 710.882c0 .55.45 1.278 1 1.618.55.34 1 .168 1-.382s-.45-1.278-1-1.618c-.55-.34-1-.168-1 .382m.1 3.823c.729 1.212 1.54 1.989 1.803 1.726.263-.263-.333-1.255-1.324-2.205-1.722-1.649-1.744-1.628-.479.479m-.767 3.751c0 .801.383 1.22.85.931.467-.289.591-.944.274-1.456-.808-1.308-1.124-1.161-1.124.525m-296.769 4.837c.376.986.935 1.541 1.243 1.233.308-.307.001-1.114-.683-1.793-.988-.98-1.102-.865-.56.56M48 735c0 .55.477 1 1.059 1s.781-.45.441-1-.816-1-1.059-1-.441.45-.441 1m2 4.711c0 .574.788 1.662 1.75 2.417 1.619 1.269 1.64 1.222.283-.628-.807-1.1-1.594-2.187-1.75-2.417-.156-.229-.283.054-.283.628m5.505 7.281c-.337.546-.206 1.72.292 2.61.829 1.481.959 1.477 1.543-.044.425-1.109.252-1.424-.521-.946-.774.478-.947.163-.52-.948.698-1.82.184-2.255-.794-.672m4.214 5.758c.574 1.532.446 1.579-1.032.378-1.439-1.171-1.687-1.159-1.687.083 0 2.189 1.152 2.907 2.658 1.658.997-.828 1.792-.769 3.092.228.962.738.659.119-.674-1.377-2.835-3.181-3.25-3.351-2.357-.97" fill-rule="evenodd"/><path fill="#9556ad" stroke="#9556ad" d="M196.667 37.667c-.367.366-.7 2.279-.741 4.25-.041 1.971-.867 5.379-1.835 7.575-2.134 4.836-3.406 3.377-4.57-5.242-.659-4.885-2.504-7.432-2.535-3.5-.007.962-.832 4.45-1.832 7.75l-1.819 6-.727-6C181.267 37.435 179 35.599 179 45.577c0 3.003-.961 8.939-2.136 13.191-1.175 4.253-2.474 9.307-2.885 11.232-.646 3.016-.765 2.642-.864-2.709L173 61.082l-5.497.209-5.498.209.001 3.5c.002 5.382 3.27 10 7.077 10h3.113l-.686 5.912c-.602 5.193-.432 6.166 1.402 8 1.442 1.442 2.088 3.363 2.088 6.21 0 3.581.201 3.956 1.524 2.858 2.653-2.202 2.783-.489 1.537 20.243-.671 11.152-1.365 24.327-1.544 29.277-.41 11.384-.299 10.739-1.767 10.25-1.462-.487-1.42-.216-1.775-11.5-.151-4.812-.463-7.505-.693-5.983-.23 1.522-.837 2.508-1.35 2.191-.513-.317-.932-.051-.932.59s-.675.907-1.5.59c-.825-.316-1.5-.167-1.5.331 0 1.411-3.885.773-4.462-.732-.284-.737-.101-1.085.404-.773.506.313 1.245.042 1.643-.602.455-.735.29-.903-.442-.451-.669.414-2.462-.577-4.216-2.33-4.392-4.393-5.371-4.748-11.295-4.095-7.341.807-10.351 3.012-11.761 8.613-.79 3.137-1.415 4.15-1.995 3.234-.587-.925-.85-.537-.861 1.267-.015 2.581 4.045 9.077 7.402 11.842 4.738 3.903 14.955.932 18.715-5.442 1.599-2.71 2.494-3.283 4.673-2.995 1.482.197 3.651.388 4.82.426 1.946.063 2.088.509 1.679 5.276-.271 3.149.171 7.199 1.117 10.25 1.809 5.828.709 47.28-2.827 106.543-.345 5.775-1.291 25.575-2.103 44-.812 18.425-1.946 42.05-2.519 52.5-.945 17.231-1.711 31.441-4.985 92.5-.575 10.725-1.224 20.4-1.443 21.5-.644 3.24.449-26.183 2.507-67.5 1.92-38.542 3.331-68.924 4.451-95.871l.598-14.371-4.8.688c-6.828.979-18.391 3.796-17.841 4.347.256.255 2.561-.064 5.124-.71 2.563-.645 4.864-.969 5.113-.721.725.725-10.766 3.803-15.35 4.112-2.634.178-6.344 1.587-10.015 3.804-3.207 1.937-7.418 4.177-9.359 4.978-3.915 1.616-13.183 9.594-12.475 10.739.563.91-9.487 10.129-10.415 9.555-.373-.23-1.331.045-2.13.61-1.184.839-1.129.925.298.466 2.312-.744 2.225.634-.176 2.807C79.106 360.979 69.429 396.449 74.003 421c.564 3.025 1.304 8.302 1.646 11.726.341 3.424.987 5.999 1.435 5.722.448-.277 1.095 1.196 1.437 3.274.343 2.078 1.039 4.678 1.547 5.778 1.985 4.299.459 15.624-2.427 18-8.115 6.681-5.934 12.626 5.859 15.967 8.611 2.439 16.295 10.363 19.491 20.1 1.251 3.813 2.592 7.383 2.979 7.933.387.55.807 5.275.935 10.5.127 5.225.476 10.518.775 11.763.751 3.128-.598 11.406-1.744 10.697-.515-.318-.936.799-.936 2.481s-.352 3.059-.782 3.059c-.824 0-3.461 7.992-3.158 9.574.401 2.097-.146 4.153-1.592 5.985-1.38 1.749-1.385 1.571-.051-1.809 2.495-6.318.258-4.165-3.32 3.196-3.806 7.829-13.496 18.773-17.597 19.875-.55.148-3.448.98-6.439 1.85-3.874 1.126-7.388 1.4-12.208.952-5.441-.506-7.022-.325-8.061.922-.71.853-2.354 2.684-3.652 4.067l-2.36 2.517 3.843 8.185c4.295 9.151 4.995 16.697 2.122 22.879-6.288 13.531-7.78 17.119-9.689 23.307-1.188 3.85-2.577 9.925-3.086 13.5-.509 3.575-1.418 8.75-2.019 11.5-.643 2.939-.838 8.709-.473 14 3.934 57.078 45.512 97.274 112.718 108.972 84.787 14.759 161.992-16.905 185.483-76.072 11.952-30.102 10.515-56.247-4.941-89.9-6.398-13.93-6.559-17.025-1.466-28.126 4.545-9.906 4.552-10.183.378-14.229-3.71-3.596-4.318-3.713-13.701-2.651-33.099 3.747-57.727-70.608-32.775-98.954 3.75-4.261 5.577-5.205 14.549-7.515 2.939-.757 5.054-2.177 6.957-4.671l2.733-3.584-3.706-6.778c-4.742-8.67-4.689-10.648.718-26.768 5.634-16.797 7.011-25.342 6.287-38.995-1.49-28.069-18.172-57.524-42.119-74.37-6.361-4.475-11.521-6.899-7.034-3.304 1.907 1.528 1.906 1.539-.07.593-1.106-.53-2.864-1.904-3.905-3.055-1.042-1.151-2.668-2.093-3.615-2.093-.946 0-4.364-1.175-7.595-2.61-3.231-1.436-10.117-3.692-15.304-5.013-5.186-1.322-9.686-2.694-10-3.049-.313-.356.217-.364 1.18-.019.963.346 1.75.232 1.75-.252 0-.485-1.697-1.168-3.77-1.518-2.074-.351-4.4-1.026-5.169-1.501-1.531-.947-3.847-38.891-6.012-98.538-.62-17.05-1.3-31.821-1.513-32.824-.213-1.004.479-2.691 1.538-3.75 1.554-1.554 1.926-3.354 1.926-9.325v-7.4l4.614-.367c4.017-.319 4.722-.08 5.455 1.847 2.091 5.5 10.512 7.669 17.201 4.431 10.086-4.883 12.015-12.47 5.114-20.109-4.678-5.178-12.746-5.874-16.842-1.454-1.635 1.765-2.587 2.187-3.091 1.372-.521-.844-.986-.716-1.639.451-.647 1.156-2.321 1.628-5.768 1.628h-4.856l-.674-5.25c-.37-2.887-1.111-6.96-1.646-9.049-1.537-6.008-.606-7.376 5.41-7.954 5.014-.482 5.347-.357 8.358 3.126 3.021 3.495 3.378 3.627 9.821 3.627 6.568 0 6.756-.074 10.615-4.211 7.922-8.493 3.569-19.704-7.847-20.207-4.819-.213-5.571.064-8.712 3.205-1.891 1.891-3.589 2.985-3.773 2.432-.217-.65-1.091-.602-2.472.138-1.175.628-4.363 1.143-7.084 1.143h-4.947l-1.118-4.443c-1.639-6.51-1.465-12.557.362-12.557 2.037 0 2.892-4.132 2.095-10.135-.625-4.718-.542-4.989 1.341-4.391 3.117.989 5.915-1.136 7.051-5.356 1.962-7.286-1.067-13.173-5.977-11.615-1.629.517-2.117-.116-3.1-4.023-.642-2.55-2.005-5.159-3.029-5.798-1.024-.64-1.868-2.292-1.876-3.673-.032-5.937-3.372-9.289-6.319-6.342m-23.588 20.916c.048 1.165.285 1.402.604.605.289-.722.253-1.585-.079-1.917-.332-.332-.568.258-.525 1.312m-29.691 42.397c-3.428 1.385-6.385 5.947-6.42 9.905-.03 3.47-.095 3.535-1.603 1.615-1.722-2.191-1.727-2.321.183 4.438 1.304 4.615 7.121 8.062 13.604 8.062 5.764 0 6.293-.21 10.083-4 3.676-3.676 4.437-4 9.383-4H174v-9l-4.75-.118c-2.613-.066-5.097-.062-5.522.007-.425.069-1.184-.957-1.687-2.281-1.906-5.013-11.691-7.441-18.653-4.628m55.11 13.52c.391 7.15 1.111 15.475 1.6 18.5.49 3.025.899 7.75.91 10.5.025 6.485.958 10.16 2.115 8.335 1.055-1.664 1.021-15.031-.061-24.335-3.096-26.606-5.716-34.07-4.564-13M193.5 124c-.34.55.309 1 1.441 1 1.132 0 2.059-.45 2.059-1s-.648-1-1.441-1-1.719.45-2.059 1m-.323 25.667c.486 2.509 2.823 2.853 2.823.416 0-1.228-.646-2.083-1.573-2.083-.932 0-1.442.68-1.25 1.667m-9.51 1c-1.08 1.08-.771 2.079.833 2.695 1.02.391 1.5-.054 1.5-1.393 0-1.965-1.072-2.564-2.333-1.302m.333 12.274c0 1.132.45 2.059 1 2.059s1-.648 1-1.441-.45-1.719-1-2.059c-.55-.34-1 .309-1 1.441m7.453 97.097c.299 54.704.79 145.924 1.09 202.712L193.09 566h-3.42c-1.881 0-4.86.288-6.619.64l-3.2.64.503-38.39c.277-21.115.95-55.94 1.496-77.39.547-21.45 1.258-60.15 1.581-86 .323-25.85 1.061-78.275 1.639-116.5.659-43.516.703-71.93.118-76-.88-6.125-.941-5.749-1.045 6.5-.159 18.785-1.973 137.155-3.163 206.5-.562 32.725-1.49 86.715-2.063 119.979-.572 33.263-1.137 60.574-1.254 60.692-.39.39-13.041 2.284-13.329 1.996-1.05-1.049 2.068-69.528 3.281-72.071.884-1.852 1.403-6.558 1.434-13 .027-5.553.464-16.396.971-24.096 2.359-35.803 3.961-71.458 4.964-110.5.601-23.375 1.538-56.45 2.082-73.5 1.787-56.028 2.968-108.799 2.446-109.321-1.157-1.157-1.357 1.784-2.411 35.48-.605 19.338-1.55 41.838-2.101 50-.551 8.163-1.904 36.216-3.008 62.341s-2.676 61-3.494 77.5c-3.768 76.001-4.619 96.385-4.241 101.5.452 6.102-.979 62.034-1.83 71.537-.438 4.894-.944 6.22-2.669 7-3.001 1.358-3.295 3.249-.566 3.636 2.596.368 2.619.507 4.761 29.327.614 8.25 1.531 18.6 2.038 23 .508 4.4 1.204 10.625 1.548 13.834.344 3.209.844 5.617 1.11 5.351.266-.266.005-4.769-.578-10.005-2.216-19.87-4.047-43.523-4.059-52.43L164 575h14l.13 11.25c.072 6.188.471 22.95.888 37.25.666 22.835.706 21.435.331-11.5l-.426-37.5 7.025.332 7.025.331.278 33.169.277 33.168.236-33.25L194 575h14.928l.326 9.75.327 9.75.21-9.538.209-9.537 4.01-.16c7.354-.293 7.979-2.244 1.569-4.895-5.429-2.246-5.541-2.682-5.693-22.245-.063-8.044-.463-20.475-.889-27.625-.491-8.242-.585-1.894-.257 17.343l.518 30.344-6.879-.717c-3.783-.394-7.077-.897-7.319-1.117-.493-.448-1.601-134.806-2.452-297.247-.309-59.066-.818-107.649-1.13-107.962-.313-.312-.324 44.19-.025 98.894m-13.64-95.355c.721.289 1.584.253 1.916-.079.332-.332-.258-.568-1.312-.525-1.165.048-1.402.285-.604.604m19.382 3.817c.02 1.65.244 2.204.498 1.231.254-.973.237-2.323-.037-3-.274-.677-.481.119-.461 1.769m1.125 22.5c0 3.575.182 5.037.403 3.25.222-1.787.222-4.713 0-6.5-.221-1.787-.403-.325-.403 3.25m.875 39.5c.02 1.65.244 2.204.498 1.231.254-.973.237-2.323-.037-3-.274-.677-.481.119-.461 1.769m1.183 26.5c0 6.325.163 8.913.361 5.75.198-3.163.198-8.338 0-11.5-.198-3.162-.361-.575-.361 5.75m1.224 52c.246 21.175 1.118 61.675 1.94 90 2.025 69.827 2.217 74.011 1.888 41-.278-27.92-1.67-85.796-3.403-141.5-.86-27.641-.865-27.506-.425 10.5m-39.852.662c.688.278 1.813.278 2.5 0 .688-.277.125-.504-1.25-.504s-1.937.227-1.25.504m-35.309 11.893c-1.83 1.467-1.798 1.487.559.365 3.061-1.458 3.628-1.92 2.358-1.92-.537 0-1.849.7-2.917 1.555m-22.982 13.512c-1.076 1.741.149 2.11 1.521.457.789-.95.865-1.524.201-1.524-.584 0-1.36.48-1.722 1.067m-5.953 4.927c-.999 1.103-1.351 2.006-.783 2.006 1.258 0 3.752-2.858 3.08-3.53-.265-.265-1.299.42-2.297 1.524M79.465 364.25l-1.585 3.25 2.038-2.5c1.962-2.407 2.602-4 1.608-4-.261 0-1.188 1.462-2.061 3.25M297.158 395c0 1.375.227 1.938.504 1.25.278-.687.278-1.812 0-2.5-.277-.687-.504-.125-.504 1.25m.493 12.75c-.357 4.813-.887 9.875-1.178 11.25l-.529 2.5 1.099-2.5c1.125-2.558 2.655-20 1.755-20-.274 0-.79 3.938-1.147 8.75M79.184 465.496c-.628 1.377-1.601 2.504-2.163 2.504-.561 0-1.021.45-1.021 1s.353 1 .784 1c.967 0 4.578-5.971 3.976-6.573-.239-.24-.949.691-1.576 2.069m197.034 10.254c-2.392 2.337-2.432 2.452-.266.765 4.268-3.325 4.471-3.515 3.764-3.515-.377 0-1.951 1.238-3.498 2.75M270 483c-.589 1.1-.845 2-.57 2s.981-.9 1.57-2c.589-1.1.845-2 .57-2s-.981.9-1.57 2m-63.714 3.5c.008 2.75.202 3.756.432 2.236.229-1.52.223-3.77-.014-5-.237-1.23-.425.014-.418 2.764m-49.034 7c.011 2.2.216 2.982.455 1.738.239-1.244.23-3.044-.02-4s-.446.062-.435 2.262M207.3 500c0 3.025.187 4.262.416 2.75.229-1.512.229-3.988 0-5.5s-.416-.275-.416 2.75m-67.061 25.666c-.694.28-1.699 1.324-2.232 2.322-.935 1.746-.832 1.747 2.761.046 2.053-.971 4.407-2.016 5.232-2.321.825-.305.15-.555-1.5-.555s-3.568.229-4.261.508m-45.596 44.858c-1.391 2.488-2.098 4.257-1.572 3.932 1.05-.649 5.237-8.456 4.535-8.456-.239 0-1.573 2.036-2.963 4.524m-5.719 8.226L86.5 581.5l2.75-2.424c1.513-1.334 2.75-2.571 2.75-2.75 0-.785-.81-.146-3.076 2.424M208.32 606c0 3.575.182 5.038.403 3.25.222-1.788.222-4.712 0-6.5-.221-1.788-.403-.325-.403 3.25m-83.625-1.487c-.914 1.918-1.456 3.487-1.205 3.487.685 0 3.72-6.123 3.263-6.58-.217-.217-1.143 1.174-2.058 3.093m-5.258 7.579c-4.762 5.012-10.113 7.309-16.919 7.261-3.825-.027-5.267.237-4 .732 6.239 2.437 17.564-1.543 22.295-7.835 3.085-4.104 2.443-4.178-1.376-.158m163.968 4.158-1.905 2.25 2.25-1.905c2.114-1.79 2.705-2.595 1.905-2.595-.19 0-1.202 1.013-2.25 2.25M207.32 625c0 3.575.182 5.038.403 3.25.222-1.788.222-4.712 0-6.5-.221-1.788-.403-.325-.403 3.25m-156.696 7.539c-.965 2.514-.681 3.163.498 1.136.584-1.004.851-2.036.593-2.293-.257-.258-.749.263-1.091 1.157M206.272 637c0 2.475.195 3.487.434 2.25.238-1.237.238-3.263 0-4.5-.239-1.237-.434-.225-.434 2.25m-159.267 3.256c-1.11 2.51-2.27 6.067-2.576 7.904-.349 2.094.597.584 2.536-4.048 3.337-7.975 3.373-11.392.04-3.856m113.264 1.437c.973.254 2.323.237 3-.037.677-.274-.119-.481-1.769-.461-1.65.02-2.204.244-1.231.498M330.32 683c0 3.575.182 5.038.403 3.25.222-1.788.222-4.712 0-6.5-.221-1.788-.403-.325-.403 3.25m-222.373 31.006c-12.604 2.136-34.112 15.221-39.374 23.955-1.149 1.908.816.456 6.717-4.961 11.382-10.449 26.049-17.157 41.21-18.847 7.827-.872 7.87-.892 2-.905-3.3-.007-8.049.334-10.553.758" fill-rule="evenodd"/><path fill="#1d062d" stroke="#1d062d" d="M196.65 41.196c-.325 1.817-.902 8.696-1.282 15.286l-.689 11.982-1.778-5.23c-.978-2.877-2.41-8.944-3.182-13.482l-1.405-8.252-.779 9.453c-.828 10.04-2.866 18.626-3.809 16.047-.302-.825-1.14-7.125-1.864-14l-1.315-12.5-.748 9.428c-.412 5.186-2.364 15.7-4.34 23.365-3.553 13.788-3.571 13.96-1.674 16.072 1.054 1.174 2.195 2.922 2.535 3.885.339.962 1.371 1.75 2.292 1.75 1.489 0 1.602.972 1.019 8.75-1.393 18.573-2.591 38.995-2.61 44.494-.02 5.418.106 5.72 2.229 5.324 1.238-.231 2.607-.453 3.044-.494.436-.041.661-.845.5-1.788-.425-2.477 3.213-2.974 3.853-.526.72 2.751 5.214 1.736 6.426-1.451 1.112-2.925 2.927-2.15 2.927 1.25 0 1.413.583 2.441 1.385 2.441 1.939 0 2.921-9.065 2.056-18.985-.68-7.798-.77-8.015-3.32-8.03-4.485-.027-5.966-1.643-2.819-3.077 2.146-.977 2.729-1.964 2.848-4.819.147-3.513.167-3.494.922.911.513 2.985.685.281.512-8.036-.307-14.777.324-18.006 2.631-13.457 2.206 4.35 2.553 7.427 3.86 34.166 1.469 30.072 1.557 29.614-5.63 29.167-6.967-.433-6.85-.813-6.013 19.559.365 8.856 1.069 99.082 1.567 200.503.497 101.42 1.263 184.727 1.703 185.125.439.399 3.587.961 6.995 1.249l6.198.525-.493-22.651c-.27-12.457-1.128-33.45-1.906-46.65-.777-13.2-1.672-35.25-1.988-49-.315-13.75-1.011-39.175-1.546-56.5-.535-17.325-1.409-53.55-1.944-80.5-.966-48.687-2.534-106.025-3.642-133.196-.49-12.036-.829-14.263-2.227-14.634-.907-.241-.385-.49 1.16-.554 1.545-.064 2.593.234 2.329.661-.265.428.144 18.991.908 41.25 2.281 66.488 3.345 100.153 3.952 124.973.316 12.925 1.003 37.225 1.527 54s1.418 47.825 1.985 69c.567 21.175 1.453 45.25 1.969 53.5.515 8.25 1.231 25.239 1.591 37.752l.653 22.753 4.388 1.941c6.025 2.665 4.94 6.054-1.938 6.054-3.22 0-3.676 1.475-3.658 11.832.041 23.456-3.057 59.393-5.316 61.668-.661.666-.795.644-.4-.066.619-1.115 3.137-36.093 4.291-59.597l.671-13.663-6.983-.337-6.983-.337-.647 19.411c-.357 10.676-.648 27.663-.648 37.75V651l-2.25-.079c-1.238-.043-1.687-.306-1-.583.688-.278 1.25-2.042 1.25-3.921 0-2.059-.497-3.423-1.25-3.432-.847-.011-.776-.316.221-.946 1.231-.778 1.535-6.217 1.867-33.394l.397-32.464-6.736-.34-6.736-.341.399 38.122.399 38.123-7.48.565c-6.156.466-7.773.956-9.144 2.774-1.643 2.178-1.676 2.142-2.397-2.688-.402-2.693-1.34-6.358-2.084-8.146l-1.354-3.25h4.449c3.595 0 4.437-.336 4.385-1.75-.387-10.529-3.716-32.255-4.405-28.75-1.236 6.279-2.56 7.654-1.926 2 .414-3.696.282-4.609-.507-3.5-.587.825-1.136 3.075-1.219 5-.102 2.362-.292 2.768-.585 1.25-.534-2.772-3.294-2.967-3.996-.283-.282 1.082-1.263 2.205-2.179 2.495-.916.291-4.805 2.553-8.642 5.027-3.837 2.473-7.539 4.501-8.227 4.504-.687.004-1.25.907-1.25 2.007 0 1.135-.667 2-1.542 2-1.616 0-1.762.095-7.59 4.965-1.998 1.669-4.248 3.042-5 3.052-.752.009-3.28 1.997-5.618 4.417-2.337 2.421-4.25 3.764-4.25 2.984 0-2.265-2.963-1.638-3.933.832-1.087 2.766-3.422 4.75-8.317 7.068-2.062.977-3.75 2.114-3.75 2.528 0 .414-1.604 1.332-3.565 2.041-1.961.71-3.809 1.925-4.107 2.701-.298.777-1.286 1.412-2.194 1.412-.909 0-2.215.9-2.902 2-.687 1.1-1.865 2-2.618 2-.753 0-1.968.722-2.7 1.604-.733.882-2.363 1.996-3.623 2.475-1.26.48-2.291 1.479-2.291 2.222 0 2.118-4.705 6.026-6.449 5.357-.853-.327-1.551-.153-1.551.387 0 .541-1.457 2.285-3.238 3.876l-3.238 2.893-1.181-2.657c-.993-2.234-1.196-2.339-1.277-.657-.08 1.665-.259 1.748-1.066.5-.862-1.333-.982-1.333-1.084 0-.064.825-.476.375-.916-1-.737-2.3-.81-2.22-.916 1-.063 1.925-.452 4.031-.865 4.68-1.434 2.255-.123-14.237 1.922-24.18 1.927-9.371 3.925-15.25 11.892-35 4.725-11.713 4.375-17.348-1.777-28.635-.19-.349 1.812-.637 4.449-.641 28.053-.042 51.597-34.559 51.651-75.724.021-15.542-1.253-22.656-5.73-32-4.619-9.638-16.873-21.5-22.213-21.5-1.168 0-1.416-.494-.879-1.75 4.014-9.398 3.782-15.202-1.186-29.585-19.581-56.701 10.486-107.311 71.152-119.764 6.86-1.408 8.5-2.377 8.5-5.023 0-4.927-29.032 3.184-45.097 12.599-41.979 24.604-56.407 64.955-40.713 113.867 4.228 13.177 4.372 19.698.56 25.458-3.462 5.231-3.791 4.556 3.5 7.175 32.024 11.505 34.98 74.689 5.009 107.06-9.786 10.57-16.359 13.455-28.796 12.638l-9.488-.623.625 2.724c.344 1.498 2.026 5.649 3.738 9.224 4.456 9.308 4.217 14.832-1.137 26.242-16.462 35.083-17.738 69.23-3.671 98.194 2.863 5.895 2.531 6.892-.523 1.572-2.007-3.494-1.95.185.064 4.145 16.345 32.142 51.55 54.078 101.929 63.511 13.595 2.546 60.025 2.559 74.436.022 55.827-9.829 95.822-39.665 110.071-82.112 9.217-27.457 7.136-52.649-6.87-83.177-6.542-14.261-6.77-17.143-2.174-27.529 5.079-11.479 5.036-11.122 1.745-14.645-2.776-2.972-3.137-3.081-6.815-2.066-25.198 6.958-50.448-27.143-50.378-68.038.038-22.115 7.624-35.672 22.356-39.952 11.478-3.336 12.625-6.054 7.057-16.735-4.2-8.059-4.23-7.674 2.041-26.643 7.221-21.839 8.12-35.597 3.528-53.983-2.177-8.715-10.893-27.497-14.114-30.412-1.036-.937-1.883-2.116-1.883-2.619 0-1.483-17.381-17.611-24.21-22.464-11.429-8.124-28.311-15.634-41.067-18.27-3.178-.657-7.497-2.32-9.599-3.696l-3.821-2.502-.634-13.172c-.349-7.244-1.3-26.896-2.113-43.671-3.812-78.577-3.76-76.372-1.821-77.794 1.463-1.073 1.728-2.635 1.547-9.124l-.217-7.829 4.717-.57c3.633-.439 4.948-.211 5.718.992 2.674 4.178 4.327 5.544 7.524 6.219 8.631 1.823 18.976-4.645 18.976-11.865 0-13.053-18.742-18.128-22.018-5.962-.732 2.719-1.459 3.749-2.279 3.228-1.28-.814-2.441-.972-8.575-1.17l-3.871-.125-.65-7.75c-.357-4.262-.905-9.823-1.218-12.357-.56-4.545-.524-4.616 2.647-5.25 6.639-1.328 9.566-.811 10.806 1.909 2.535 5.564 13.005 6.829 19.318 2.334 10.595-7.545 5.791-20.886-7.521-20.886-4.454 0-9.61 3.913-9.654 7.327-.01.735-.345.653-.899-.222-.605-.955-1.869-1.198-4.002-.772-1.715.343-5.089.354-7.498.024l-4.379-.6-1.131-7.604c-1.098-7.382-1.065-7.653 1.147-9.324 2.024-1.53 2.249-2.463 2.025-8.392-.24-6.352-.151-6.645 1.86-6.119 3.677.961 6.892-3.337 6.892-9.214 0-4.966-1.273-7.442-2.364-4.598-.323.843-1.818 1.494-3.429 1.494-2.733 0-2.896-.265-3.781-6.179-1.321-8.815-3.417-8.908-3.456-.154-.026 5.709-.224 6.504-1.205 4.833-.662-1.127-1.226-6.364-1.291-12-.108-9.283-.264-10.022-2.174-10.304-1.632-.241-2.18.379-2.65 3m-30.493 22.541c-4.144.369-4.313.51-3.705 3.075 1.662 7 7.684 10.591 9.546 5.692 1.436-3.776 1.282-9.543-.248-9.329-.687.096-3.204.349-5.593.562m.426 6.129c-.431.697-.513 1.537-.183 1.867.895.895 1.871-.421 1.387-1.871-.338-1.016-.574-1.016-1.204.004m-22.741 33.036c-1.461 1.154-3.129 2.098-3.704 2.098-.993 0-1.397 1.636-2.507 10.164-1.368 10.506 16.045 13.808 22.538 4.273 2.144-3.149 2.743-3.424 7.468-3.43 4.94-.007 5.153-.121 5.576-3.007l.441-3h-5.26c-4.582 0-5.348-.29-5.951-2.25-1.922-6.254-13.121-9.173-18.601-4.848m-.763 34.509c-4.715 1.674-6.85 9.411-4.044 14.655 1.15 2.148.028 2.597-1.835.734-1.73-1.73-1.475-.15.448 2.786 2.259 3.447 6.437 5.414 11.501 5.414 3.806 0 4.738-.521 8.943-5 4.316-4.597 5.066-5 9.301-5 4.473 0 4.607-.089 4.607-3.061 0-3.052-.014-3.06-4.406-2.401-4.322.648-4.439.591-6.149-3.013-2.95-6.215-9.852-8.137-18.366-5.114m37.653 24.191c-.331.331-.644 11.057-.695 23.836-.083 20.729-.563 39.15-2.552 98.062-1.661 49.165-2.641 92.321-3.175 139.75-.326 29.013-.98 52.75-1.452 52.75s-.858 4.317-.858 9.594c0 8.638-.192 9.644-1.931 10.098-1.062.278-2.2 1.206-2.528 2.063-1.367 3.561 5.405 17.401 6.818 13.933.266-.654.519-.383.562.601.076 1.719.152 1.719 1.944 0 1.754-1.682 1.902-4.724 2.479-50.789.639-51.073 3.06-201.623 4.249-264.25.599-31.58.498-36.25-.786-36.25-.81 0-1.744.271-2.075.602m5.28 27.148c.025 54.567-2.988 278.119-4.005 297.25-.571 10.725-1.014 30.85-.984 44.723.029 13.873-.25 27.508-.621 30.301l-.673 5.078 6.385-.301c5.729-.27 6.358-.507 6.11-2.301-.152-1.1-.152-6.05 0-11 .641-20.895-.974-349.238-1.841-374.25-.556-16.046-.73-17.25-2.49-17.25-1.812 0-1.892 1.188-1.881 27.75m-13.25-26.043c1.244.239 3.044.23 4-.02s-.062-.446-2.262-.435c-2.2.011-2.982.216-1.738.455m1.583 2.924c-.848.347-.878 1.457-.114 4.171 1.217 4.326.32 55.22-1.29 73.198-.567 6.325-1.665 23.425-2.44 38-4.987 93.792-8.576 159.602-9.434 173-2.312 36.093-2.433 43-.752 43 1.514 0 2.1-5.356 2.788-25.5.075-2.2.514-7.375.975-11.5.741-6.621 2.041-32.755 3.384-68 .241-6.325 1.11-23.425 1.932-38 .821-14.575 1.992-37.975 2.601-52 .609-14.025 1.754-37.2 2.545-51.5.791-14.3 1.678-36.35 1.971-49 .293-12.65.752-26.037 1.018-29.75.487-6.782.127-7.475-3.184-6.119M219 310.884c.825.509 6 2.148 11.5 3.642 10.162 2.76 28.161 10.993 32.246 14.75 1.235 1.136 2.505 1.807 2.82 1.491 1.728-1.728-18.364-12.425-31.355-16.693-9.157-3.009-17.885-4.839-15.211-3.19m51.715 24.315c6.024 5.091 7.321 5.684 2.347 1.072-2.509-2.327-4.915-4.239-5.347-4.25-.431-.012.919 1.418 3 3.178m.149 8.301c.524 1.1 2.16 3.125 3.635 4.5 7.783 7.253 16.459 23.513 20.121 37.708 4.163 16.137 3.237 29.047-3.569 49.792-5.404 16.47-5.78 19.67-3.479 29.593.512 2.209.139 2.784-2.526 3.888-32.565 13.489-34.06 86.027-2.371 115.019l3.825 3.5-3.059-3.5c-11.462-13.116-16.944-25.631-19.928-45.5-4.936-32.873 3.545-58.687 21.871-66.564 4.733-2.034 5.572-2.766 5.088-4.436-3.481-12.018-3.16-14.482 4.973-38.278 9.146-26.758 1.737-58.953-18.474-80.274-3.883-4.096-6.631-6.548-6.107-5.448m7.136-1.187c0 .172 1.462 1.635 3.25 3.25l3.25 2.937-2.937-3.25c-2.738-3.029-3.563-3.71-3.563-2.937m6 7.065c0 .207.788.995 1.75 1.75 1.586 1.243 1.621 1.208.378-.378-1.307-1.666-2.128-2.195-2.128-1.372m5.5 7.622c.853 1.65 1.776 3 2.051 3 .275 0-.198-1.35-1.051-3s-1.776-3-2.051-3c-.275 0 .198 1.35 1.051 3m13.658 39c0 1.375.227 1.938.504 1.25.278-.687.278-1.812 0-2.5-.277-.687-.504-.125-.504 1.25M73 473.777c0 2.643 3.734 5.357 9.894 7.191 4.764 1.419 8.228 3.267 11.466 6.118 4.98 4.383 5.611 4.411 2.958.129-4.337-7-8.619-10.187-17.17-12.783-5.282-1.603-7.148-1.774-7.148-.655M174.3 490c0 3.025.187 4.262.416 2.75.229-1.512.229-3.988 0-5.5s-.416-.275-.416 2.75m-35.27 31.113c-12.247 4.887-16.479 15.314-18.014 44.387-.523 9.9-1.164 18.9-1.424 20-.26 1.1-1.239 5.375-2.175 9.5-2.935 12.94-9.35 22.574-14.539 21.834-3.927-.561-4.679-4.855-1.892-10.805 2.678-5.716 1.789-9.367-2.545-10.454-10.735-2.695-13.625 16.23-3.284 21.505 9.311 4.75 21.369.347 27.623-10.086 6.113-10.199 9.176-26.037 9.667-49.994.467-22.767 4.162-33 11.917-33 3.555 0 4.05 1.499 1.127 3.414-2.802 1.836-3 3.156-1.315 8.779 2.032 6.781 7.027 7.182 10.314.827 4.817-9.316-5.465-19.896-15.46-15.907M229 541c-.901.582-1.025.975-.309.985.655.008 1.469-.435 1.809-.985.767-1.242.421-1.242-1.5 0m15.232 15c0 1.925.206 2.712.457 1.75.252-.962.252-2.538 0-3.5-.251-.962-.457-.175-.457 1.75m11.02 2.5c.011 2.2.216 2.982.455 1.738.239-1.244.23-3.044-.02-4s-.446.062-.435 2.262M181.5 562c-.34.55.11 1 1 1s1.34-.45 1-1c-.34-.55-.79-1-1-1-.21 0-.66.45-1 1m62.695 1.5c.02 1.65.244 2.204.498 1.231.254-.973.237-2.323-.037-3-.274-.677-.481.119-.461 1.769m-73.445 1.807c-3.162.559-5.75 1.446-5.75 1.97 0 .577 2.271.671 5.75.238 6.231-.775 7.25-1.137 7.25-2.574 0-.518-.338-.876-.75-.796-.412.08-3.338.603-6.5 1.162m85.329.276c.048 1.165.285 1.402.604.605.289-.722.253-1.585-.079-1.917-.332-.332-.568.258-.525 1.312m-.807 6.417c0 2.475.195 3.487.434 2.25.238-1.237.238-3.263 0-4.5-.239-1.237-.434-.225-.434 2.25m-11.616.5c.335 2.2.775 4.188.977 4.417.757.859.19-4.497-.68-6.417-.631-1.394-.721-.788-.297 2m-79.659 6.75c-.005 5.849 4.236 57.227 5.573 67.5l.553 4.25H179.314l-.657-16.66c-.361-9.163-.657-26.038-.657-37.5V576h-14l-.003 3.25m92.255 1.25c.011 2.2.216 2.982.455 1.738.239-1.244.23-3.044-.02-4s-.446.062-.435 2.262m-11.057 0c.02 1.65.244 2.204.498 1.231.254-.973.237-2.323-.037-3-.274-.677-.481.119-.461 1.769m11.963 6.5c0 1.375.227 1.938.504 1.25.278-.687.278-1.812 0-2.5-.277-.687-.504-.125-.504 1.25m59.613 12.25c-2.558 1.985-5.867 14.239-5.156 19.095.335 2.285 3.003 9.555 5.93 16.155 15.36 34.639 16.047 61.752 2.281 90.039-11.189 22.994-38.778 45.146-67.303 54.039-4.913 1.532-8.427 2.954-7.809 3.16 1.896.632 16.255-4.659 26.53-9.776 12.98-6.463 21.499-12.599 31.809-22.909 30.367-30.366 36.164-67.221 17.464-111.013-8.304-19.445-8.746-23.951-3.517-35.774 2.086-4.714 2.079-4.806-.229-3.016m-29.043 7.533c-1.631 9.163-10.802 14.393-19.908 11.353-2.939-.981-3.108-.946-1.478.305 8.549 6.562 23.522-1.873 22.469-12.657-.313-3.203-.34-3.179-1.083.999m-164.023 3.383c-1.144 2.01-1.292 2.736-.408 2.003.763-.634 1.571-.968 1.795-.744.224.224.473-.68.552-2.009.181-3.024.217-3.038-1.939.75M162.158 619c0 1.375.227 1.938.504 1.25.278-.687.278-1.812 0-2.5-.277-.687-.504-.125-.504 1.25m-52.557 3.164c.255.412 1.124.495 1.931.185 2.036-.781 1.834-1.252-.463-1.079-1.062.08-1.722.482-1.468.894M211 641.082c-2.037.586-1.713.737 1.75.818 2.338.055 4.25-.073 4.25-.283 0-.875-3.675-1.202-6-.535m-38.238.625c1.244.239 3.044.23 4-.02s-.062-.446-2.262-.435c-2.2.011-2.982.216-1.738.455m27.988-.045c.688.278 1.813.278 2.5 0 .688-.277.125-.504-1.25-.504s-1.937.227-1.25.504m-37.979 3.569c.417 1.597.216 1.884-.863 1.233-1.205-.726-1.205-.598.004.891 1.11 1.368 1.587 1.463 2.234.442.613-.965.827-.849.839.453.008.962.69 1.75 1.515 1.75.833 0 1.5-.889 1.5-2 0-1.352-.667-2-2.059-2-1.132 0-1.81-.403-1.506-.895.305-.493-.068-1.134-.828-1.425-.991-.381-1.227.057-.836 1.551m.351 15.769c-.059 1.375 1.864 8.35 4.274 15.5 7.127 21.14 10.412 40.307 10.711 62.5.078 5.775.465 13.65.86 17.5l.718 7 .134-6c.662-29.763-3.93-61.673-12.012-83.467-1.741-4.693-3.482-10.108-3.871-12.033-.543-2.692-.731-2.923-.814-1m4.941.842c-.034.739.837 2.487 1.937 3.885 1.1 1.399 2 2.059 2 1.467 0-.592-.482-1.374-1.07-1.737-.589-.364-1.46-1.628-1.937-2.809-.476-1.182-.895-1.544-.93-.806M174.5 667c-.34.55-.168 1 .382 1s1.278-.45 1.618-1c.34-.55.168-1-.382-1s-1.278.45-1.618 1m-123.305 9.5c.02 1.65.244 2.204.498 1.231.254-.973.237-2.323-.037-3-.274-.677-.481.119-.461 1.769m-.116 12.083c.048 1.165.285 1.402.604.605.289-.722.253-1.585-.079-1.917-.332-.332-.568.258-.525 1.312m-2.967 4.209C47.703 701.156 59.346 736 62.55 736c.286 0 .108-.788-.395-1.75-1.176-2.246-4.489-9.643-6.563-14.649-2.004-4.838-4.503-14.053-6.13-22.601-.681-3.575-1.288-5.469-1.35-4.208M114 712.583c-13.876 2.329-22.471 5.723-32.36 12.78-12.585 8.981-16.543 15.317-11.385 18.228.984.555.983.421-.005-.644-1.6-1.725-1.621-4.947-.032-4.947.67 0 2.133-1.064 3.25-2.364 4.265-4.964 17.587-13.47 26.228-16.747 11.673-4.427 36.651-5.047 46.244-1.148 6.772 2.753 7.734 2.355 1.307-.54-8.035-3.62-25.085-5.988-33.247-4.618m-22.187 1.1c.721.289 1.584.253 1.916-.079.332-.332-.258-.568-1.312-.525-1.165.048-1.402.285-.604.604m-12.507 6.909-2.806 2.591 3.25-2.159c2.977-1.979 3.947-3.024 2.806-3.024-.245 0-1.707 1.166-3.25 2.592m-7.54 5.505-3.266 3.096 3.22-2.143c1.771-1.179 3.485-2.572 3.809-3.097 1.159-1.876-.553-.901-3.763 2.144M56 738.941c0 .518.445 1.216.989 1.552.566.35.734-.051.393-.941-.665-1.732-1.382-2.049-1.382-.611m112 33.017c0 .878 19.87.311 20.917-.597.229-.198-4.384-.361-10.25-.361-6.134 0-10.667.407-10.667.958M113 775c.825.533 1.95.969 2.5.969s.325-.436-.5-.969c-.825-.533-1.95-.969-2.5-.969s-.325.436.5.969m13.5 5c1.1.473 2.675.859 3.5.859.945 0 .761-.317-.5-.859-1.1-.473-2.675-.859-3.5-.859-.945 0-.761.317.5.859m6.647 1.944c1.812 1.144 14.988 4.106 17.668 3.972.927-.047-2.092-.937-6.709-1.978-4.616-1.042-9.341-2.151-10.5-2.464-1.766-.477-1.84-.401-.459.47m101.353 1.579c-2.75.707-4.1 1.32-3 1.362 1.1.042 4.25-.55 7-1.315 6.277-1.746 2.772-1.788-4-.047m-13 2.477-4 .716 3.5.042c1.925.024 4.625-.318 6-.758 3.213-1.029.247-1.029-5.5 0m-60.5 1.557c4.675.747 10.3 1.321 12.5 1.275 2.455-.051.524-.581-5-1.372-4.95-.708-10.575-1.282-12.5-1.275-1.925.007.325.624 5 1.372" fill-rule="evenodd"/></svg>